PathFileType	4	(X/Y/Z)	s07c0102.trc
DataRate	CameraRate	NumFrames	NumMarkers	Units	OrigDataRate	OrigDataStartFrame	OrigNumFrames
200	200	4	48	mm	200	1750	2000
Frame#	Time	racr			lacr			c7			jug			rlel			rdr			llel			ldr			s2			lic			ric			lasi			rasi			rpsi			lpsi			rgt			lgt			rth1			rth2			rth3			rth4			rlfc			rmfc			rsh1			rsh2			rsh3			rsh4			rlmal			rcal			rtoe			rmt5			lth1			lth2			lth4			lth3			llfc			lmfc			lsh1			lsh2			lsh3			lsh4			llmal			lcal			ltoe			lmt5			SBIKE			LBIKE			RBIKE			
		X1	Y1	Z1	X2	Y2	Z2	X3	Y3	Z3	X4	Y4	Z4	X5	Y5	Z5	X6	Y6	Z6	X7	Y7	Z7	X8	Y8	Z8	X9	Y9	Z9	X10	Y10	Z10	X11	Y11	Z11	X12	Y12	Z12	X13	Y13	Z13	X14	Y14	Z14	X15	Y15	Z15	X16	Y16	Z16	X17	Y17	Z17	X18	Y18	Z18	X19	Y19	Z19	X20	Y20	Z20	X21	Y21	Z21	X22	Y22	Z22	X23	Y23	Z23	X24	Y24	Z24	X25	Y25	Z25	X26	Y26	Z26	X27	Y27	Z27	X28	Y28	Z28	X29	Y29	Z29	X30	Y30	Z30	X31	Y31	Z31	X32	Y32	Z32	X33	Y33	Z33	X34	Y34	Z34	X35	Y35	Z35	X36	Y36	Z36	X37	Y37	Z37	X38	Y38	Z38	X39	Y39	Z39	X40	Y40	Z40	X41	Y41	Z41	X42	Y42	Z42	X43	Y43	Z43	X44	Y44	Z44	X45	Y45	Z45	X46	Y46	Z46	X47	Y47	Z47	X48	Y48	Z48	
1750	8.7500	441.634217	1457.563211	-102.861115	440.890767	1443.668057	-358.435166	396.933289	1504.080873	-237.600356	354.236151	1363.603103	-229.331710	546.845133	1138.351391	-26.715725	727.191000	903.017761	-83.616236	543.643782	1131.344191	-449.425229	729.486997	898.748646	-412.469051	-145.947831	1200.176008	-254.822915	17.251337	1253.764564	-394.754493	16.899976	1254.369436	-101.327015	49.477094	1176.616028	-366.359132	32.975475	1200.489308	-118.899698	-123.669758	1241.533683	-202.879594	-107.930450	1248.173669	-311.730176	-32.609152	1131.984707	-52.578147	-37.271922	1091.441176	-419.284528	112.510235	1088.504785	-58.310646	198.985918	1080.422463	-71.724349	271.594726	1035.480251	-68.641694	207.737311	1109.986062	-92.780421	387.695043	955.930064	-104.325385	378.940461	941.302577	-210.648500	302.232185	845.595689	-79.460012	261.316609	768.736807	-95.206960	187.395989	720.645016	-90.416539	272.078759	761.713972	-134.057213	89.787137	628.327634	-88.692601	13.630025	631.440237	-115.654691	238.078252	447.222459	-131.175884	157.025759	466.196276	-59.459543	20.080457	981.882705	-431.458863	87.169208	924.382807	-433.673762	116.659605	944.036484	-423.450879	116.289767	840.204177	-430.415023	210.250848	692.676007	-388.890450	200.697802	673.614604	-295.754408	176.250787	553.146991	-413.533911	182.650303	469.450408	-394.943207	147.500676	386.094984	-401.708977	187.136108	471.308123	-352.936393	115.588836	254.863381	-397.560865	45.951625	220.875340	-365.474431	332.735383	178.219950	-361.696694	249.551167	157.931504	-422.790255	-264.224390	970.460354	-238.772965	-83.586298	78.964535	-437.900544	-83.543355	78.844445	-40.354831	
1751	8.7550	441.577203	1457.541890	-102.332119	441.340757	1443.746303	-358.029660	397.116011	1504.060456	-237.150110	354.509296	1363.517093	-228.980859	546.583091	1138.184051	-26.367960	727.108398	903.092990	-83.523493	543.595316	1131.274550	-449.204538	729.413902	898.719933	-412.417999	-145.660647	1200.256402	-254.601175	17.332882	1253.727219	-394.956476	17.277373	1254.288373	-101.399397	49.627020	1176.509444	-366.611325	33.519699	1200.448364	-119.214807	-123.336428	1241.625023	-202.685573	-107.748208	1248.185991	-311.742800	-31.589649	1132.596521	-52.399366	-37.386580	1091.346226	-419.294402	113.367724	1090.747795	-59.017593	199.930791	1083.593430	-72.660058	273.048593	1039.510760	-69.465673	208.253983	1113.175531	-93.757103	389.839297	960.764654	-105.143073	381.113310	945.814605	-211.447378	305.341441	849.733019	-80.080331	264.864031	772.322738	-95.827904	191.571261	723.735032	-90.817208	275.872059	765.353844	-134.542364	94.840544	630.378322	-88.797119	18.285459	632.187426	-115.666934	245.558325	451.469496	-131.438610	164.437619	469.087755	-59.459595	19.794019	981.597980	-431.518122	86.507615	923.639597	-433.391958	115.996499	943.190957	-422.920697	114.985814	839.287429	-429.943749	207.031265	690.729704	-388.641334	196.972727	671.660123	-295.373966	171.871516	551.533933	-413.362973	177.722383	467.806897	-394.798685	142.086759	384.646653	-401.666922	182.172636	469.382940	-352.397814	109.327937	253.507829	-397.396066	39.453750	220.163061	-365.378949	325.805127	174.785524	-361.664690	242.444864	155.284866	-422.581555	-264.203771	970.479069	-238.793113	-83.595812	78.964585	-437.894854	-83.552623	78.865470	-40.355754	
1752	8.7600	441.478079	1457.508949	-101.853167	441.661885	1443.751097	-357.644559	397.299823	1504.018664	-236.808420	354.612947	1363.466187	-228.659026	546.281204	1138.053882	-26.002279	727.034476	903.150914	-83.415933	543.564853	1131.238436	-448.987985	729.386398	898.679710	-412.388231	-145.436567	1200.348291	-254.389346	17.394727	1253.779251	-395.144408	17.812428	1254.177593	-101.417351	49.680827	1176.502502	-366.800650	34.026527	1200.475717	-119.440587	-123.030846	1241.742084	-202.459371	-107.617443	1248.243911	-311.689302	-30.626017	1133.146258	-52.262897	-37.500932	1091.403771	-419.313380	114.154320	1092.950430	-59.709742	200.726065	1086.568926	-73.432423	274.302782	1043.216661	-70.280037	208.769604	1116.123687	-94.612552	391.906357	965.386324	-105.969503	383.178563	950.190740	-212.219266	308.405810	853.611892	-80.751614	268.658467	775.803932	-96.377405	195.752117	726.679459	-91.112612	279.686557	768.933983	-135.043451	100.008641	632.091066	-88.877139	23.238044	632.613783	-115.580859	253.129917	455.407385	-131.663038	172.078420	472.028156	-59.405745	19.574057	981.423742	-431.540238	86.037441	923.273803	-433.637582	115.414336	942.278274	-422.129745	113.805166	838.548098	-429.503523	204.013035	689.020450	-388.464860	193.527442	669.860799	-294.992985	167.687061	550.180443	-413.223311	172.930998	466.465101	-394.634578	136.776341	383.498693	-401.617267	177.373545	467.905663	-352.312494	102.996833	252.614208	-397.414431	32.842035	219.890277	-365.282188	318.715213	171.621802	-361.595607	235.231268	153.120433	-422.623706	-264.188291	970.492195	-238.822561	-83.587851	78.963045	-437.890276	-83.564064	78.887006	-40.343950	
1753	8.7650	441.351002	1457.428867	-101.424111	441.866653	1443.704432	-357.242367	397.445440	1503.934907	-236.487976	354.613291	1363.394534	-228.336684	545.988494	1137.932569	-25.618060	726.948720	903.219533	-83.301071	543.623314	1131.240254	-448.786439	729.349126	898.650950	-412.365613	-145.277829	1200.408486	-254.197111	17.361755	1253.868084	-395.302793	18.263390	1254.100713	-101.438844	49.706832	1176.593081	-367.015118	34.432628	1200.550770	-119.561907	-122.818161	1241.883268	-202.237728	-107.571520	1248.350709	-311.619009	-29.749918	1133.632783	-52.183947	-37.694204	1091.473826	-419.290846	114.854663	1094.853932	-60.300370	201.500495	1089.282460	-74.168852	275.419314	1046.575772	-71.021555	209.148164	1119.017273	-95.277644	393.871447	969.777444	-106.762159	385.066978	954.392204	-213.085431	311.376374	857.311121	-81.430605	272.341468	778.921995	-96.918196	200.060091	729.154997	-91.487031	283.582097	772.242854	-135.469656	105.262752	633.401627	-89.012948	28.347178	632.676839	-115.556385	260.927540	459.056770	-131.901470	179.867326	474.684237	-59.392404	19.367844	981.356106	-431.511368	85.464249	922.807520	-433.098232	114.859713	941.552030	-421.454366	112.745668	837.914174	-428.950076	201.547429	687.662653	-388.107791	190.348552	668.437402	-294.610835	163.767381	549.085193	-413.095471	168.303662	465.357231	-394.481503	131.504775	382.702947	-401.590454	172.699650	466.812994	-352.105466	96.589867	251.986393	-397.415141	26.079499	220.010310	-365.274016	311.461071	168.769579	-361.454376	227.932490	151.461257	-422.912690	-264.167543	970.503796	-238.857917	-83.585577	78.935105	-437.897875	-83.584308	78.939327	-40.356772	
